<svg width="750" height="500" viewBox="0 0 750 500" fill="none" xmlns="http://www.w3.org/2000/svg">
<g opacity="0.34">
<g opacity="0.6">
<path d="M620.847 291.592C625.635 312.729 624.824 332.09 618.437 352.794C610.444 378.701 592.423 402.796 566.676 417.633C557.639 422.841 547.938 426.756 537.834 429.539C536.186 432.165 534.401 434.708 532.506 437.167H618.738C640.669 411.063 653.234 377.596 655.212 343.54C655.747 334.329 655.508 325.074 654.469 315.911C650.446 280.399 634.706 246.564 611.074 219.723C610.724 221.609 610.426 223.501 610.209 225.402C607.632 248.014 615.931 269.891 620.847 291.592Z" fill="#E76F51"/>
</g>
<g opacity="0.41">
<path d="M353.867 431.908C348.81 424.917 344.851 416.008 339.485 408.87C327.993 411.207 316.645 414.617 305.168 417.558C281.681 423.576 257.484 428.052 233.246 428.385C206.315 428.754 178.853 423.563 155.429 409.726C137.566 399.174 121.857 383.051 113.363 363.802C115.734 390.351 125.361 416.24 141.583 437.168H357.946C356.532 435.461 355.169 433.709 353.867 431.908Z" fill="#E76F51"/>
</g>
<g opacity="0.41">
<path d="M387.982 67.6751C394.526 67.4531 401.562 67.0611 409.239 66.4801C445.064 63.7681 480.551 71.9301 514.961 83.2021C518.281 84.2891 521.583 85.4601 524.861 86.7091C510.042 70.4091 491.147 57.7281 470.355 50.5231C429.203 36.2641 379.298 41.9331 343.049 64.3871C357.943 64.4251 372.933 65.5491 387.982 67.6751Z" fill="#E76F51"/>
</g>
<g opacity="0.35">
<path d="M154.556 409.996C177.913 423.52 205.349 428.687 232.282 428.464C256.522 428.263 280.739 424.047 304.256 418.333C315.747 415.541 327.112 412.294 338.614 410.087C333.916 403.969 328.118 399.179 319.494 398.154C286.13 394.189 251.024 407.941 217.809 410.278C195.491 411.848 171.783 408.822 153.745 395.477C142.044 386.82 133.506 374.345 127.686 360.938C115.61 333.119 115.286 301.197 125.487 272.761C132.39 253.517 149.163 238.893 155.03 219.286C159.931 202.909 154.251 185.815 155.853 169.261C156.18 165.885 156.809 162.532 157.893 159.212C163.638 141.615 191.229 116.191 208.139 107.696C248.666 87.3371 290.961 77.4331 334.093 76.4221C309.575 72.3211 286.369 64.9461 245.27 56.2151C196.452 45.8441 141.608 81.6711 112.802 123.349C109.864 127.599 107.281 132.063 105.054 136.686C95.0911 157.375 92.2791 181.271 96.8981 203.647C102.328 229.952 119.112 250.225 113.113 278.229C109.459 295.286 108.487 311.1 106.593 327.986C105.113 341.184 107.55 353.801 112.713 365.289C121.113 383.984 136.745 399.683 154.556 409.996Z" fill="#E76F51"/>
</g>
<g opacity="0.47">
<path d="M409.241 66.4795C401.563 67.0605 394.527 67.4525 387.984 67.6745C410.21 70.8155 432.563 76.1425 454.922 83.4955C454.925 83.4965 538.471 110.973 538.471 110.973C577.737 123.887 603.763 161.52 601.317 202.782C601.301 203.053 601.284 203.325 601.266 203.596C599.702 227.514 591.726 250.959 578.552 270.619C566.623 288.42 550.161 308.33 546.039 330.178C542.756 347.587 549.848 365.185 550.711 382.903C551.532 399.748 546.497 415.732 537.834 429.538C547.938 426.754 557.639 422.839 566.676 417.632C592.423 402.795 610.444 378.7 618.437 352.793C624.824 332.09 625.635 312.729 620.847 291.591C615.931 269.889 607.632 248.012 610.209 225.4C610.425 223.5 610.724 221.608 611.074 219.721C613.623 205.966 619.054 192.528 617.893 178.63C617.016 168.129 612.392 158.277 606.738 149.384C587.968 119.864 557.688 99.2165 524.863 86.7075C521.585 85.4585 518.283 84.2875 514.963 83.2005C480.553 71.9305 445.065 63.7675 409.241 66.4795Z" fill="#E76F51"/>
</g>
<g opacity="0.7">
<path d="M157.511 150.882C156.444 154.314 155.831 157.778 155.521 161.264C154.002 178.356 159.766 195.97 154.947 212.897C149.178 233.162 132.479 248.342 125.672 268.239C115.613 297.639 116.096 330.584 128.312 359.232C134.199 373.039 142.799 385.871 154.544 394.745C172.649 408.425 196.371 411.425 218.681 409.69C251.884 407.108 286.921 392.733 320.304 396.653C328.933 397.666 334.755 402.58 339.483 408.87C344.849 416.007 348.808 424.916 353.865 431.908C355.168 433.709 356.53 435.461 357.943 437.167H532.504C534.4 434.708 536.184 432.166 537.832 429.539C546.496 415.734 551.53 399.749 550.709 382.904C549.846 365.186 542.753 347.587 546.037 330.178C550.158 308.33 566.62 288.421 578.55 270.62C591.724 250.96 599.7 227.515 601.264 203.597C601.282 203.326 601.299 203.055 601.315 202.783C603.761 161.521 577.735 123.887 538.469 110.974C538.469 110.974 454.923 83.4965 454.92 83.4955C432.561 76.1425 410.208 70.8155 387.982 67.6745C372.933 65.5475 357.943 64.4235 343.049 64.3865C339.792 64.3785 336.542 64.4325 333.295 64.5285C290.168 65.7955 247.924 76.2345 207.499 97.4555C190.631 106.31 163.167 132.691 157.511 150.882Z" fill="#E76F51"/>
</g>
<g opacity="0.35">
<path d="M311.797 56.3047C319.299 56.3047 325.381 50.223 325.381 42.7207C325.381 35.2185 319.299 29.1367 311.797 29.1367C304.295 29.1367 298.213 35.2185 298.213 42.7207C298.213 50.223 304.295 56.3047 311.797 56.3047Z" fill="#E76F51"/>
</g>
<g opacity="0.35">
<path d="M678.942 234.96C695.884 234.96 709.618 221.226 709.618 204.284C709.618 187.343 695.884 173.608 678.942 173.608C662 173.608 648.266 187.343 648.266 204.284C648.266 221.226 662 234.96 678.942 234.96Z" fill="#E76F51"/>
</g>
<g opacity="0.35">
<path d="M83.6554 286.664C96.6871 275.838 98.4753 256.498 87.6494 243.466C76.8235 230.435 57.4831 228.646 44.4514 239.472C31.4197 250.298 29.6316 269.639 40.4574 282.67C51.2833 295.702 70.6237 297.49 83.6554 286.664Z" fill="#E76F51"/>
</g>
<g opacity="0.35">
<path d="M551.44 80.681C556.587 80.681 560.759 76.5087 560.759 71.362C560.759 66.2152 556.587 62.043 551.44 62.043C546.293 62.043 542.121 66.2152 542.121 71.362C542.121 76.5087 546.293 80.681 551.44 80.681Z" fill="#E76F51"/>
</g>
</g>
<path d="M663.545 433.346H86.4551C85.8111 433.346 85.2891 432.824 85.2891 432.18V431.74C85.2891 431.096 85.8111 430.574 86.4551 430.574H663.544C664.188 430.574 664.71 431.096 664.71 431.74V432.18C664.711 432.824 664.189 433.346 663.545 433.346Z" fill="#264653" stroke="#264653" stroke-width="3" stroke-miterlimit="10"/>
<g opacity="0.57">
<path d="M251.256 345.03C250.703 345.03 250.256 344.583 250.256 344.03C250.256 309.808 264.579 276.749 289.554 253.329C293.97 249.187 298.73 245.335 303.701 241.88C304.153 241.566 304.777 241.677 305.093 242.131C305.408 242.585 305.296 243.208 304.842 243.523C299.952 246.922 295.269 250.713 290.922 254.789C266.35 277.832 252.257 310.359 252.257 344.031C252.256 344.583 251.809 345.03 251.256 345.03Z" fill="#2A9D8F"/>
<path d="M497.893 345.029C497.34 345.029 496.893 344.582 496.893 344.029C496.893 330.064 494.559 316.369 489.956 303.325C489.772 302.803 490.046 302.233 490.566 302.049C491.088 301.87 491.658 302.14 491.842 302.659C496.52 315.918 498.892 329.837 498.892 344.029C498.893 344.582 498.445 345.029 497.893 345.029Z" fill="#2A9D8F"/>
<path d="M488.234 297.106C487.844 297.106 487.474 296.877 487.313 296.495C477.698 273.719 461.598 254.578 440.753 241.143C440.289 240.844 440.155 240.225 440.454 239.761C440.754 239.297 441.372 239.162 441.837 239.463C463.021 253.117 479.383 272.57 489.154 295.719C489.369 296.228 489.131 296.814 488.622 297.028C488.496 297.081 488.364 297.106 488.234 297.106Z" fill="#2A9D8F"/>
<path d="M312.366 238.53C312.022 238.53 311.688 238.353 311.502 238.035C311.224 237.558 311.384 236.946 311.86 236.667C330.808 225.575 352.494 219.711 374.574 219.711C392.964 219.711 410.669 223.632 427.197 231.366C427.697 231.6 427.913 232.195 427.678 232.696C427.444 233.195 426.849 233.411 426.349 233.178C410.088 225.57 392.668 221.712 374.574 221.712C352.849 221.712 331.513 227.481 312.87 238.393C312.712 238.486 312.538 238.53 312.366 238.53Z" fill="#2A9D8F"/>
<path d="M229.307 345.029C228.754 345.029 228.307 344.582 228.307 344.029C228.307 286.036 262.611 233.462 315.701 210.092C316.212 209.866 316.797 210.099 317.019 210.604C317.242 211.109 317.012 211.7 316.507 211.922C264.142 234.973 230.307 286.829 230.307 344.029C230.307 344.582 229.859 345.029 229.307 345.029Z" fill="#2A9D8F"/>
<path d="M519.842 345.029C519.289 345.029 518.842 344.582 518.842 344.029C518.842 298.547 497.001 255.197 460.418 228.069C459.975 227.74 459.882 227.114 460.21 226.67C460.54 226.227 461.167 226.135 461.61 226.462C479.585 239.791 494.486 257.326 504.703 277.171C515.412 297.974 520.843 320.468 520.843 344.028C520.842 344.582 520.395 345.029 519.842 345.029Z" fill="#2A9D8F"/>
<path d="M452.358 222.321C452.174 222.321 451.989 222.271 451.823 222.165C448.865 220.286 445.8 218.492 442.711 216.834C442.224 216.573 442.041 215.967 442.303 215.48C442.564 214.994 443.17 214.81 443.656 215.072C446.788 216.753 449.896 218.572 452.895 220.477C453.361 220.773 453.499 221.392 453.203 221.857C453.013 222.157 452.689 222.321 452.358 222.321Z" fill="#2A9D8F"/>
<path d="M436.782 213.719C436.638 213.719 436.493 213.688 436.354 213.622C416.975 204.425 396.189 199.762 374.573 199.762C358.765 199.762 343.226 202.302 328.389 207.312C327.859 207.489 327.297 207.208 327.121 206.685C326.944 206.162 327.226 205.594 327.748 205.418C342.792 200.338 358.546 197.762 374.572 197.762C396.487 197.762 417.562 202.491 437.211 211.816C437.71 212.053 437.923 212.649 437.686 213.148C437.516 213.508 437.156 213.719 436.782 213.719Z" fill="#2A9D8F"/>
<path d="M544.175 345.03C543.622 345.03 543.175 344.583 543.175 344.03C543.175 325.465 540.177 307.219 534.264 289.801C534.087 289.279 534.367 288.71 534.89 288.532C535.415 288.356 535.982 288.635 536.159 289.158C542.141 306.783 545.176 325.244 545.176 344.029C545.175 344.583 544.727 345.03 544.175 345.03Z" fill="#2A9D8F"/>
<path d="M531.673 281.005C531.279 281.005 530.905 280.771 530.747 280.383C518.84 251.197 499 225.958 473.37 207.395C472.923 207.071 472.823 206.446 473.147 205.999C473.469 205.551 474.094 205.451 474.543 205.775C500.475 224.558 520.55 250.096 532.598 279.628C532.807 280.14 532.561 280.724 532.05 280.932C531.927 280.981 531.799 281.005 531.673 281.005Z" fill="#2A9D8F"/>
<path d="M464.23 201.039C464.049 201.039 463.867 200.99 463.702 200.888C437.011 184.234 406.19 175.43 374.573 175.43C360.323 175.43 346.165 177.211 332.494 180.723C331.962 180.859 331.414 180.539 331.276 180.003C331.138 179.468 331.461 178.923 331.996 178.785C345.83 175.231 360.155 173.429 374.573 173.429C406.565 173.429 437.752 182.337 464.761 199.189C465.23 199.482 465.372 200.099 465.08 200.567C464.891 200.872 464.564 201.039 464.23 201.039Z" fill="#2A9D8F"/>
<path d="M300.001 192.662C299.631 192.662 299.275 192.456 299.102 192.102C298.859 191.606 299.063 191.007 299.559 190.764C304.773 188.208 310.173 185.897 315.61 183.894C316.127 183.704 316.703 183.968 316.894 184.487C317.084 185.006 316.82 185.58 316.301 185.771C310.928 187.75 305.591 190.034 300.44 192.56C300.299 192.629 300.148 192.662 300.001 192.662Z" fill="#2A9D8F"/>
<path d="M204.975 345.03C204.422 345.03 203.975 344.583 203.975 344.03C203.975 313.736 212.018 283.981 227.233 257.982C242.001 232.749 263.135 211.589 288.352 196.791C288.829 196.512 289.441 196.671 289.72 197.147C289.999 197.624 289.84 198.236 289.364 198.516C237.928 228.702 205.975 284.46 205.975 344.031C205.975 344.583 205.527 345.03 204.975 345.03Z" fill="#2A9D8F"/>
</g>
<g opacity="0.22">
<path d="M187.074 336.589C186.246 336.589 185.574 335.917 185.574 335.089C185.574 308.502 190.985 282.794 201.657 258.678C211.967 235.383 226.656 214.697 245.317 197.197C252.036 190.897 259.272 185.041 266.824 179.791C267.505 179.318 268.439 179.485 268.912 180.167C269.385 180.847 269.217 181.782 268.537 182.254C261.103 187.421 253.982 193.185 247.37 199.385C210.004 234.424 188.574 283.886 188.574 335.088C188.574 335.917 187.902 336.589 187.074 336.589Z" fill="#2A9D8F"/>
<path d="M562.072 336.589C561.244 336.589 560.572 335.917 560.572 335.089C560.572 313.856 557.024 293.03 550.025 273.193C549.75 272.412 550.16 271.555 550.941 271.279C551.721 271.008 552.579 271.413 552.855 272.195C559.966 292.354 563.572 313.515 563.572 335.09C563.572 335.917 562.9 336.589 562.072 336.589Z" fill="#2A9D8F"/>
<path d="M547.388 263.725C546.803 263.725 546.247 263.381 546.005 262.808C531.385 228.175 506.904 199.07 475.207 178.639C474.511 178.19 474.309 177.262 474.759 176.566C475.209 175.868 476.14 175.67 476.832 176.118C509.038 196.877 533.913 226.451 548.768 261.643C549.09 262.406 548.733 263.286 547.969 263.608C547.779 263.687 547.582 263.725 547.388 263.725Z" fill="#2A9D8F"/>
<path d="M279.988 174.662C279.473 174.662 278.971 174.396 278.692 173.92C278.274 173.205 278.514 172.286 279.229 171.868C308.037 155.005 341.006 146.091 374.574 146.091C402.532 146.091 429.449 152.052 454.577 163.81C455.327 164.161 455.651 165.054 455.3 165.804C454.949 166.555 454.058 166.878 453.306 166.527C428.579 154.957 402.09 149.091 374.574 149.091C341.539 149.091 309.094 157.862 280.745 174.457C280.507 174.596 280.246 174.662 279.988 174.662Z" fill="#2A9D8F"/>
<path d="M153.699 336.59C152.871 336.59 152.199 335.918 152.199 335.09C152.199 246.922 204.352 166.994 285.066 131.464C285.827 131.131 286.711 131.475 287.044 132.233C287.378 132.991 287.033 133.877 286.275 134.211C206.649 169.262 155.199 248.112 155.199 335.091C155.199 335.918 154.527 336.59 153.699 336.59Z" fill="#2A9D8F"/>
<path d="M595.446 336.59C594.618 336.59 593.946 335.918 593.946 335.09C593.946 265.928 560.736 200.011 505.108 158.763C504.443 158.269 504.303 157.33 504.797 156.664C505.291 155.998 506.23 155.859 506.896 156.352C534.223 176.616 556.877 203.274 572.41 233.445C588.691 265.071 596.947 299.27 596.947 335.089C596.946 335.918 596.274 336.59 595.446 336.59Z" fill="#2A9D8F"/>
<path d="M492.844 150.015C492.569 150.015 492.29 149.94 492.04 149.781C487.534 146.919 482.872 144.192 478.184 141.675C477.454 141.283 477.179 140.374 477.572 139.644C477.965 138.914 478.876 138.642 479.602 139.032C484.356 141.583 489.081 144.348 493.65 147.249C494.349 147.693 494.555 148.62 494.112 149.319C493.825 149.769 493.34 150.015 492.844 150.015Z" fill="#2A9D8F"/>
<path d="M469.161 136.938C468.945 136.938 468.726 136.891 468.518 136.793C439.051 122.808 407.444 115.717 374.574 115.717C350.536 115.717 326.908 119.58 304.347 127.198C303.563 127.463 302.711 127.041 302.447 126.257C302.181 125.472 302.603 124.621 303.388 124.356C326.259 116.633 350.209 112.717 374.574 112.717C407.892 112.717 439.932 119.905 469.806 134.083C470.554 134.438 470.872 135.332 470.518 136.081C470.261 136.621 469.723 136.938 469.161 136.938Z" fill="#2A9D8F"/>
<path d="M632.443 336.589C631.615 336.589 630.943 335.917 630.943 335.089C630.943 306.856 626.384 279.112 617.395 252.631C617.128 251.846 617.548 250.994 618.333 250.728C619.117 250.462 619.969 250.882 620.235 251.666C629.331 278.46 633.943 306.527 633.943 335.089C633.943 335.917 633.271 336.589 632.443 336.589Z" fill="#2A9D8F"/>
<path d="M613.437 239.243C612.845 239.243 612.285 238.89 612.047 238.309C593.941 193.931 563.772 155.554 524.802 127.326C524.131 126.84 523.981 125.902 524.467 125.231C524.952 124.559 525.892 124.411 526.562 124.896C565.987 153.453 596.507 192.278 614.825 237.175C615.138 237.942 614.77 238.818 614.003 239.131C613.816 239.206 613.625 239.243 613.437 239.243Z" fill="#2A9D8F"/>
<path d="M510.893 117.658C510.622 117.658 510.347 117.585 510.1 117.43C469.515 92.1057 422.651 78.7207 374.574 78.7207C352.905 78.7207 331.378 81.4287 310.59 86.7687C309.787 86.9767 308.97 86.4907 308.764 85.6897C308.558 84.8877 309.041 84.0697 309.844 83.8637C330.875 78.4607 352.654 75.7207 374.574 75.7207C423.214 75.7207 470.627 89.2637 511.688 114.886C512.391 115.324 512.605 116.25 512.166 116.952C511.882 117.408 511.393 117.658 510.893 117.658Z" fill="#2A9D8F"/>
<path d="M261.189 104.921C260.634 104.921 260.102 104.612 259.841 104.081C259.476 103.337 259.783 102.438 260.527 102.074C268.447 98.1904 276.657 94.6764 284.928 91.6294C285.706 91.3444 286.569 91.7414 286.854 92.5184C287.141 93.2954 286.743 94.1584 285.965 94.4444C277.789 97.4554 269.675 100.928 261.847 104.767C261.637 104.872 261.411 104.921 261.189 104.921Z" fill="#2A9D8F"/>
<path d="M116.705 336.589C115.877 336.589 115.205 335.917 115.205 335.089C115.205 289.031 127.433 243.795 150.565 204.268C173.017 165.905 205.148 133.735 243.486 111.237C244.199 110.819 245.12 111.056 245.539 111.771C245.958 112.485 245.719 113.405 245.004 113.824C166.792 159.724 118.205 244.508 118.205 335.089C118.205 335.917 117.533 336.589 116.705 336.589Z" fill="#2A9D8F"/>
</g>
<path d="M424.771 356.943C423.626 356.943 422.486 356.699 421.413 356.212C419.416 355.306 417.895 353.668 417.132 351.601L414.686 344.976C409.32 345.88 403.935 345.723 398.654 344.508L395.714 350.989C394.8 353.003 393.165 354.544 391.111 355.33C389.054 356.116 386.819 356.053 384.821 355.146C380.703 353.277 378.887 348.372 380.774 344.211L383.715 337.729C379.319 334.555 375.654 330.607 372.803 325.974L366.206 328.495C364.146 329.283 361.914 329.218 359.916 328.311C357.919 327.405 356.398 325.767 355.635 323.7C354.062 319.44 356.233 314.657 360.473 313.036L367.086 310.507C366.23 305.102 366.431 299.668 367.687 294.33L361.291 291.43C357.173 289.561 355.357 284.656 357.244 280.494C358.158 278.48 359.793 276.939 361.848 276.153C363.905 275.367 366.14 275.43 368.138 276.337L374.535 279.239C377.724 274.779 381.68 271.048 386.311 268.133L383.858 261.492C382.285 257.232 384.456 252.449 388.696 250.827C390.757 250.039 392.989 250.105 394.985 251.011C396.983 251.916 398.504 253.554 399.268 255.622L401.714 262.247C407.077 261.342 412.463 261.498 417.746 262.716L420.686 256.234C422.574 252.074 427.462 250.208 431.579 252.078C433.576 252.983 435.097 254.621 435.861 256.688C436.623 258.753 436.54 260.998 435.627 263.011L432.686 269.492C437.079 272.665 440.745 276.613 443.598 281.248L450.194 278.726C452.254 277.938 454.486 278.003 456.484 278.91C458.482 279.816 460.003 281.454 460.766 283.521C462.338 287.78 460.168 292.564 455.928 294.184L449.315 296.713C450.171 302.119 449.969 307.553 448.714 312.89L455.11 315.792C459.229 317.66 461.045 322.565 459.158 326.726C457.269 330.887 452.383 332.753 448.264 330.882L441.868 327.982C438.678 332.442 434.721 336.172 430.092 339.087L432.545 345.729C434.117 349.988 431.946 354.772 427.707 356.393C426.751 356.762 425.76 356.943 424.771 356.943ZM415.979 342.704L419.008 350.907C419.584 352.47 420.733 353.707 422.239 354.39C423.746 355.076 425.435 355.123 426.988 354.529C430.21 353.297 431.859 349.661 430.664 346.426L427.642 338.239L428.35 337.812C433.278 334.84 437.432 330.922 440.698 326.165L441.172 325.474L449.088 329.064C452.2 330.479 455.899 329.058 457.334 325.903C458.766 322.747 457.396 319.029 454.281 317.617L446.366 314.025L446.574 313.212C448.004 307.624 448.216 301.917 447.206 296.25L447.06 295.435L455.21 292.319C458.432 291.087 460.081 287.452 458.886 284.216C458.31 282.653 457.161 281.416 455.655 280.733C454.149 280.048 452.462 280.003 450.906 280.595L442.738 283.719L442.308 282.99C439.402 278.051 435.551 273.9 430.862 270.656L430.175 270.181L433.802 262.186C434.497 260.655 434.561 258.949 433.982 257.382C433.405 255.82 432.257 254.582 430.751 253.9C427.637 252.484 423.937 253.905 422.505 257.061L418.879 265.056L418.069 264.852C412.537 263.46 406.88 263.295 401.25 264.362L400.418 264.519L397.389 256.316C396.812 254.753 395.664 253.516 394.157 252.833C392.652 252.15 390.965 252.101 389.409 252.695C386.186 253.927 384.537 257.562 385.733 260.799L388.755 268.985L388.047 269.412C383.117 272.384 378.963 276.303 375.699 281.059L375.225 281.75L367.309 278.159C365.801 277.474 364.116 277.426 362.559 278.021C361 278.618 359.758 279.789 359.064 281.32C357.632 284.476 359.001 288.195 362.115 289.608L370.031 293.198L369.823 294.011C368.393 299.599 368.181 305.306 369.191 310.973L369.336 311.787L361.186 314.903C357.963 316.135 356.314 319.77 357.51 323.007C358.086 324.57 359.234 325.807 360.74 326.49C362.249 327.174 363.936 327.221 365.489 326.628L373.658 323.504L374.088 324.233C376.991 329.171 380.843 333.32 385.534 336.566L386.221 337.041L382.594 345.037C381.161 348.193 382.53 351.91 385.645 353.324C387.154 354.008 388.84 354.056 390.395 353.461C391.955 352.864 393.196 351.693 393.89 350.162L397.518 342.167L398.328 342.371C403.858 343.762 409.518 343.925 415.147 342.86L415.979 342.704ZM407.9 334.237C403.746 334.237 399.536 333.376 395.522 331.555C388.138 328.204 382.517 322.148 379.693 314.5C376.87 306.855 377.179 298.536 380.564 291.075C383.95 283.613 390.005 277.901 397.617 274.991C405.231 272.079 413.492 272.322 420.875 275.669C436.112 282.582 442.822 300.74 435.833 316.149C430.684 327.498 419.516 334.237 407.9 334.237ZM408.464 274.972C405.051 274.972 401.627 275.6 398.331 276.86C391.215 279.582 385.552 284.924 382.387 291.903C379.22 298.882 378.93 306.662 381.57 313.808C384.208 320.951 389.457 326.607 396.349 329.734C410.584 336.194 427.478 329.726 434.011 315.324C440.545 300.921 434.282 283.949 420.049 277.493C416.351 275.814 412.415 274.972 408.464 274.972Z" fill="white"/>
<path d="M326.021 342.284C324.515 342.284 323.1 341.708 322.027 340.657C320.932 339.584 320.326 338.145 320.319 336.606L320.299 332.25C316.935 331.596 313.78 330.342 310.899 328.513L307.824 331.654C306.743 332.757 305.303 333.378 303.767 333.402C302.181 333.453 300.775 332.849 299.68 331.776C298.585 330.704 297.978 329.265 297.971 327.724C297.964 326.189 298.555 324.736 299.634 323.633L302.71 320.492C300.823 317.649 299.504 314.521 298.78 311.173L294.425 311.242C292.91 311.236 291.433 310.688 290.337 309.616C289.242 308.543 288.636 307.104 288.629 305.565C288.615 302.396 291.181 299.776 294.349 299.724L298.723 299.654C299.414 296.277 300.705 293.101 302.571 290.193L299.475 287.161C298.38 286.088 297.773 284.649 297.766 283.108C297.759 281.572 298.35 280.119 299.43 279.016C300.509 277.913 301.95 277.293 303.486 277.268C305.065 277.262 306.478 277.822 307.573 278.894L310.668 281.926C313.537 280 316.686 278.644 320.049 277.882L320.029 273.509C320.015 270.339 322.581 267.72 325.75 267.669C327.304 267.668 328.741 268.223 329.836 269.295C330.932 270.367 331.538 271.807 331.545 273.347L331.566 277.702C334.929 278.356 338.084 279.611 340.965 281.439L344.04 278.298V278.299C345.12 277.195 346.561 276.574 348.097 276.55C349.642 276.501 351.088 277.102 352.185 278.175C354.442 280.387 354.461 284.039 352.23 286.319L349.154 289.46C351.042 292.305 352.361 295.433 353.084 298.78L357.439 298.71C359.007 298.723 360.432 299.264 361.526 300.336C362.622 301.408 363.228 302.848 363.235 304.388C363.251 307.557 360.684 310.177 357.514 310.228L353.142 310.298C352.45 313.676 351.159 316.852 349.294 319.76L352.389 322.791C354.647 325.004 354.666 328.657 352.434 330.936C351.355 332.039 349.914 332.66 348.378 332.684C346.847 332.723 345.387 332.132 344.291 331.058L341.196 328.027C338.326 329.952 335.177 331.309 331.815 332.07L331.836 336.443C331.85 339.613 329.284 342.232 326.115 342.283C326.084 342.283 326.053 342.284 326.021 342.284ZM310.631 325.93L311.322 326.398C314.381 328.472 317.791 329.827 321.457 330.425L322.292 330.562L322.319 336.597C322.324 337.599 322.717 338.533 323.427 339.229C324.122 339.911 325.042 340.285 326.021 340.285C326.042 340.285 326.063 340.284 326.084 340.284C328.162 340.251 329.846 338.532 329.836 336.454L329.808 330.438L330.619 330.279C334.28 329.562 337.68 328.096 340.724 325.923L341.406 325.436L345.69 329.631C346.401 330.327 347.338 330.723 348.345 330.686C349.351 330.67 350.295 330.262 351.004 329.539C352.465 328.048 352.458 325.663 350.988 324.223L346.704 320.028L347.178 319.336C349.287 316.249 350.683 312.819 351.325 309.143L351.468 308.329L357.483 308.232C359.562 308.199 361.245 306.481 361.235 304.402C361.23 303.4 360.837 302.464 360.127 301.768C359.432 301.087 358.513 300.713 357.534 300.713C357.512 300.713 357.492 300.714 357.471 300.714L351.437 300.812L351.284 299.98C350.61 296.329 349.185 292.948 347.048 289.93L346.565 289.248L350.8 284.924C352.261 283.433 352.254 281.048 350.784 279.61C350.074 278.913 349.146 278.491 348.129 278.555C347.123 278.571 346.179 278.979 345.47 279.702V279.703L341.234 284.026L340.543 283.558C337.484 281.485 334.074 280.129 330.409 279.531L329.574 279.394L329.546 273.36C329.541 272.358 329.148 271.422 328.438 270.726C327.743 270.045 326.824 269.671 325.845 269.671C325.824 269.671 325.803 269.672 325.782 269.672C323.704 269.705 322.02 271.424 322.03 273.502L322.057 279.518L321.246 279.677C317.585 280.394 314.185 281.86 311.141 284.034L310.459 284.521L306.174 280.324C305.464 279.629 304.526 279.25 303.52 279.27C302.514 279.287 301.57 279.694 300.861 280.417C300.151 281.142 299.763 282.094 299.768 283.101C299.772 284.103 300.166 285.037 300.876 285.733L305.161 289.93L304.687 290.622C302.577 293.71 301.181 297.14 300.54 300.814L300.397 301.628L294.381 301.725C292.303 301.759 290.619 303.478 290.629 305.556C290.634 306.558 291.027 307.492 291.737 308.188C292.446 308.884 293.379 309.239 294.393 309.243L300.425 309.146L300.579 309.978C301.254 313.63 302.68 317.011 304.815 320.027L305.297 320.709L301.062 325.033C300.352 325.757 299.964 326.71 299.969 327.716C299.973 328.718 300.367 329.653 301.077 330.348C301.787 331.045 302.713 331.437 303.732 331.403C304.738 331.387 305.682 330.98 306.392 330.256L310.631 325.93ZM325.701 325.366C320.379 325.366 315.38 323.333 311.588 319.62C303.602 311.796 303.539 298.862 311.447 290.788C315.277 286.879 320.384 284.678 325.827 284.59C331.309 284.485 336.406 286.543 340.276 290.333C344.146 294.125 346.292 299.213 346.317 304.66C346.342 310.104 344.247 315.255 340.416 319.165C336.587 323.075 331.48 325.276 326.037 325.363C325.926 325.365 325.814 325.366 325.701 325.366ZM326.162 286.587C326.061 286.587 325.961 286.588 325.859 286.59C320.946 286.669 316.334 288.657 312.876 292.189C305.738 299.475 305.788 311.139 312.987 318.191C316.472 321.606 321.088 323.416 326.005 323.365C330.917 323.286 335.527 321.298 338.987 317.765H338.988C342.447 314.235 344.34 309.583 344.317 304.67C344.295 299.761 342.362 295.177 338.876 291.763C335.463 288.418 330.958 286.587 326.162 286.587Z" fill="white"/>
<path d="M343.162 423.987C342.352 423.987 341.532 423.848 340.731 423.555C338.958 422.906 337.55 421.608 336.769 419.899C335.987 418.189 335.925 416.275 336.594 414.507L338.641 409.106C334.825 406.753 331.562 403.742 328.923 400.137L323.625 402.559C320.067 404.188 315.858 402.644 314.247 399.119C313.465 397.41 313.403 395.496 314.073 393.729C314.741 391.966 316.057 390.562 317.779 389.775L323.076 387.353C322.077 383 321.934 378.56 322.65 374.134L317.226 372.15C315.453 371.501 314.045 370.203 313.264 368.494C312.482 366.784 312.42 364.87 313.089 363.102C314.468 359.466 318.56 357.595 322.212 358.931L327.653 360.922C330.058 357.106 333.125 353.836 336.784 351.182L334.395 345.958C333.613 344.248 333.551 342.334 334.22 340.567C334.888 338.805 336.204 337.401 337.927 336.614C341.484 334.984 345.693 336.528 347.305 340.053L349.695 345.279C354.095 344.249 358.574 344.068 363.034 344.745L365.089 339.327C366.466 335.689 370.559 333.824 374.21 335.155C375.984 335.804 377.392 337.104 378.173 338.813C378.955 340.523 379.017 342.436 378.348 344.203L376.3 349.604C380.116 351.958 383.38 354.97 386.019 358.573L391.316 356.151C393.038 355.362 394.961 355.286 396.732 355.934C398.505 356.584 399.913 357.882 400.694 359.591C401.476 361.301 401.538 363.215 400.869 364.982C400.201 366.744 398.885 368.148 397.162 368.935L391.865 371.357C392.864 375.711 393.007 380.15 392.291 384.576L397.715 386.56C399.489 387.21 400.897 388.509 401.678 390.219C402.459 391.929 402.521 393.843 401.851 395.609C400.474 399.245 396.383 401.112 392.73 399.78L387.289 397.788C384.883 401.603 381.817 404.874 378.158 407.528L380.547 412.753C381.329 414.462 381.391 416.376 380.721 418.143C380.053 419.906 378.737 421.31 377.015 422.097C375.29 422.885 373.368 422.961 371.599 422.314C369.826 421.664 368.418 420.366 367.637 418.657L365.247 413.431C360.847 414.463 356.367 414.642 351.907 413.966L349.854 419.384C348.777 422.224 346.046 423.987 343.162 423.987ZM329.602 397.629L330.079 398.315C332.794 402.213 336.26 405.41 340.379 407.817L341.108 408.244L338.466 415.218C337.987 416.481 338.031 417.849 338.589 419.069C339.147 420.288 340.152 421.214 341.419 421.678C344.045 422.641 346.992 421.292 347.985 418.677L350.621 411.721L351.435 411.864C356.156 412.692 360.909 412.501 365.562 411.297L366.373 411.086L369.455 417.827C370.013 419.047 371.018 419.974 372.286 420.438C373.557 420.904 374.941 420.847 376.182 420.281C377.422 419.714 378.37 418.704 378.85 417.436C379.329 416.173 379.286 414.806 378.728 413.587L375.646 406.846L376.335 406.369C380.289 403.639 383.543 400.169 386.007 396.056L386.432 395.346L393.417 397.903C396.043 398.867 398.99 397.517 399.98 394.902C400.46 393.639 400.416 392.272 399.859 391.052C399.301 389.832 398.296 388.905 397.027 388.441L390.024 385.878L390.178 385.046C391.052 380.356 390.902 375.643 389.73 371.039L389.524 370.229L396.33 367.118C397.571 366.551 398.519 365.541 398.999 364.274C399.477 363.011 399.433 361.644 398.876 360.424C398.319 359.204 397.313 358.277 396.045 357.813C394.774 357.347 393.391 357.403 392.148 357.97L385.341 361.083L384.864 360.397C382.149 356.5 378.683 353.302 374.563 350.894L373.833 350.467L376.477 343.493C376.956 342.23 376.913 340.864 376.355 339.644C375.797 338.424 374.792 337.496 373.523 337.033C370.897 336.069 367.95 337.418 366.96 340.035L364.322 346.99L363.508 346.847C358.787 346.017 354.033 346.211 349.382 347.414L348.571 347.624L345.489 340.884C344.336 338.364 341.318 337.26 338.761 338.431C337.52 338.998 336.572 340.008 336.092 341.275C335.613 342.538 335.657 343.905 336.215 345.125L339.297 351.865L338.608 352.342C334.653 355.072 331.399 358.542 328.936 362.655L328.511 363.365L321.526 360.809C318.898 359.846 315.952 361.192 314.962 363.81C314.483 365.073 314.526 366.441 315.085 367.661C315.643 368.88 316.648 369.806 317.915 370.27L324.918 372.833L324.764 373.665C323.889 378.355 324.04 383.067 325.212 387.671L325.418 388.48L318.612 391.591C317.372 392.158 316.424 393.168 315.944 394.436C315.465 395.699 315.508 397.066 316.066 398.285C317.219 400.807 320.238 401.905 322.793 400.739L329.602 397.629ZM357.296 404.966C347.545 404.966 338.242 399.452 333.968 390.104C328.107 377.286 333.883 362.036 346.843 356.11C359.806 350.183 375.117 355.793 380.977 368.61C383.817 374.822 384.04 381.779 381.607 388.202C379.174 394.619 374.379 399.734 368.102 402.603C364.594 404.206 360.914 404.966 357.296 404.966ZM357.65 355.746C354.31 355.746 350.914 356.447 347.674 357.928C335.716 363.396 330.383 377.456 335.785 389.272C341.188 401.088 355.312 406.25 367.268 400.785C373.063 398.136 377.49 393.415 379.735 387.493C381.978 381.574 381.773 375.164 379.157 369.442C375.219 360.826 366.643 355.746 357.65 355.746Z" fill="white"/>
<path d="M267.634 166.112L238.399 159.172C237.011 158.842 236.153 157.45 236.483 156.063L241.997 132.835C242.326 131.447 243.718 130.589 245.106 130.919L274.341 137.859C275.729 138.188 276.587 139.58 276.257 140.968L270.743 164.196C270.414 165.583 269.022 166.441 267.634 166.112Z" fill="#12423C"/>
<path d="M268.229 167.682C267.918 167.682 267.603 167.646 267.288 167.571H267.287L238.052 160.631C235.863 160.111 234.503 157.907 235.023 155.716L240.538 132.487C241.058 130.298 243.267 128.939 245.452 129.458L274.688 136.398C276.877 136.918 278.236 139.123 277.717 141.313L272.201 164.541C271.757 166.416 270.078 167.682 268.229 167.682ZM267.979 164.652C268.566 164.79 269.145 164.429 269.282 163.849L274.798 140.621C274.936 140.04 274.575 139.455 273.994 139.318L244.759 132.378C244.18 132.236 243.593 132.601 243.455 133.182L237.941 156.409C237.803 156.99 238.164 157.574 238.744 157.712L267.979 164.652Z" fill="#264653"/>
<path d="M253.991 154.004C253.822 154.004 253.651 153.985 253.482 153.949C252.862 153.814 252.333 153.445 251.991 152.91L248.316 147.136C247.872 146.437 248.078 145.51 248.776 145.065C249.473 144.622 250.401 144.826 250.847 145.525L254.177 150.758L266.586 142.759C267.279 142.309 268.209 142.509 268.659 143.207C269.108 143.903 268.907 144.831 268.211 145.28L255.267 153.625C254.882 153.875 254.44 154.004 253.991 154.004Z" fill="white"/>
<path d="M519.591 168.302L489.728 171.621C488.31 171.779 487.034 170.757 486.876 169.34L484.239 145.613C484.081 144.196 485.103 142.919 486.52 142.761L516.384 139.442C517.802 139.284 519.078 140.306 519.236 141.723L521.873 165.45C522.031 166.868 521.009 168.145 519.591 168.302Z" fill="#2A9D8F"/>
<path d="M489.435 173.137C488.513 173.137 487.624 172.826 486.893 172.242C486.041 171.561 485.505 170.589 485.385 169.505L482.748 145.777C482.5 143.539 484.118 141.517 486.356 141.269L516.218 137.95C518.462 137.699 520.477 139.32 520.728 141.555L523.365 165.284C523.613 167.522 521.995 169.544 519.757 169.792L489.895 173.111C489.74 173.128 489.587 173.137 489.435 173.137ZM516.67 140.925C516.63 140.925 516.59 140.927 516.55 140.932L486.687 144.251C486.093 144.317 485.665 144.853 485.731 145.446L488.368 169.174C488.399 169.461 488.542 169.719 488.767 169.9C488.993 170.081 489.278 170.161 489.563 170.13L519.426 166.811C520.019 166.745 520.448 166.209 520.382 165.616L517.745 141.889C517.684 141.335 517.214 140.925 516.67 140.925Z" fill="#264653"/>
<path d="M501.858 161.639C501.336 161.639 500.832 161.467 500.413 161.142L495.009 156.947C494.355 156.439 494.237 155.496 494.744 154.842C495.251 154.188 496.194 154.069 496.849 154.577L501.749 158.382L510.735 146.67C511.24 146.013 512.18 145.888 512.838 146.393C513.495 146.897 513.619 147.839 513.115 148.496L503.74 160.715C503.354 161.218 502.795 161.54 502.165 161.621C502.064 161.632 501.961 161.639 501.858 161.639Z" fill="white"/>
<path d="M160.198 198.174C164.706 198.174 168.361 194.519 168.361 190.011C168.361 185.502 164.706 181.848 160.198 181.848C155.69 181.848 152.035 185.502 152.035 190.011C152.035 194.519 155.69 198.174 160.198 198.174Z" fill="#2A9D8F"/>
<path d="M374.106 85.3836C378.615 85.3836 382.269 81.7289 382.269 77.2206C382.269 72.7123 378.615 69.0576 374.106 69.0576C369.598 69.0576 365.943 72.7123 365.943 77.2206C365.943 81.7289 369.598 85.3836 374.106 85.3836Z" fill="#2A9D8F"/>
<path d="M212.401 188.176C212.401 189.888 211.013 191.277 209.3 191.277C207.587 191.277 206.199 189.889 206.199 188.176C206.199 186.464 207.587 185.075 209.3 185.075C211.013 185.075 212.401 186.463 212.401 188.176Z" fill="#E76F51"/>
<path d="M569.386 161.001C569.386 162.713 567.998 164.102 566.285 164.102C564.572 164.102 563.184 162.714 563.184 161.001C563.184 159.289 564.572 157.9 566.285 157.9C567.998 157.9 569.386 159.288 569.386 161.001Z" fill="#E76F51"/>
<path d="M271.617 102.551C273.329 102.551 274.718 101.162 274.718 99.4496C274.718 97.737 273.329 96.3486 271.617 96.3486C269.904 96.3486 268.516 97.737 268.516 99.4496C268.516 101.162 269.904 102.551 271.617 102.551Z" fill="#E76F51"/>
<path d="M169.537 249.096C171.249 249.096 172.638 247.707 172.638 245.995C172.638 244.282 171.249 242.894 169.537 242.894C167.824 242.894 166.436 244.282 166.436 245.995C166.436 247.707 167.824 249.096 169.537 249.096Z" fill="#12423C"/>
<path d="M586.12 275.796C587.833 275.796 589.221 274.407 589.221 272.695C589.221 270.982 587.833 269.594 586.12 269.594C584.408 269.594 583.02 270.982 583.02 272.695C583.02 274.407 584.408 275.796 586.12 275.796Z" fill="#12423C"/>
<path d="M637.764 311.199C637.764 314.353 635.207 316.91 632.053 316.91C628.899 316.91 626.342 314.353 626.342 311.199C626.342 308.045 628.899 305.488 632.053 305.488C635.207 305.488 637.764 308.045 637.764 311.199Z" fill="#12423C"/>
<path d="M457.061 126.927C457.061 130.657 454.037 133.681 450.307 133.681C446.577 133.681 443.553 130.657 443.553 126.927C443.553 123.197 446.577 120.173 450.307 120.173C454.037 120.174 457.061 123.197 457.061 126.927Z" fill="#12423C"/>
<path d="M285.459 411.623L178.371 411.848C170.153 411.865 163.414 405.155 163.397 396.937L163.25 327.205C163.233 318.987 169.943 312.248 178.161 312.231L285.249 312.006C293.467 311.989 300.206 318.699 300.223 326.917L300.37 396.649C300.388 404.867 293.677 411.606 285.459 411.623Z" fill="#E76F51"/>
<path d="M178.339 413.348C169.288 413.349 161.916 405.995 161.897 396.94L161.752 327.208C161.732 318.142 169.093 310.75 178.16 310.73L285.248 310.505C285.259 310.505 285.27 310.505 285.281 310.505C294.334 310.505 301.706 317.859 301.724 326.913L301.87 396.645C301.88 401.02 300.174 405.148 297.066 408.268C293.958 411.388 289.837 413.112 285.462 413.121L178.374 413.346C178.362 413.348 178.351 413.348 178.339 413.348ZM285.28 313.506C285.271 313.506 285.262 313.506 285.253 313.506L178.165 313.731C170.753 313.747 164.735 319.791 164.751 327.203L164.896 396.935C164.912 404.337 170.94 410.349 178.338 410.349C178.348 410.349 178.358 410.349 178.367 410.349L285.455 410.124C289.029 410.116 292.397 408.706 294.939 406.154C297.481 403.601 298.877 400.227 298.869 396.653L298.723 326.921C298.709 319.518 292.681 313.506 285.28 313.506Z" fill="#264653"/>
<path opacity="0.24" d="M285.459 411.623L178.371 411.848C170.153 411.865 163.414 405.155 163.397 396.937L163.25 327.205C163.233 318.987 169.943 312.248 178.161 312.231L285.249 312.006C293.467 311.989 300.206 318.699 300.223 326.917L300.37 396.649C300.388 404.867 293.677 411.606 285.459 411.623Z" fill="#264653"/>
<path d="M279.438 396.065L232.282 350.856C231.773 350.368 231.756 349.559 232.244 349.05L293.453 285.206C293.941 284.697 294.75 284.68 295.259 285.168L342.415 330.377C342.924 330.865 342.941 331.674 342.453 332.183L281.244 396.027C280.756 396.536 279.947 396.553 279.438 396.065Z" fill="white"/>
<path d="M280.32 397.92C279.601 397.92 278.921 397.648 278.4 397.148C278.399 397.148 278.399 397.148 278.399 397.148L231.244 351.939C230.709 351.425 230.404 350.734 230.389 349.993C230.373 349.251 230.648 348.548 231.162 348.012L292.37 284.168C293.432 283.061 295.191 283.026 296.298 284.086L343.453 329.295C344.558 330.357 344.596 332.117 343.535 333.223L282.327 397.066C281.813 397.601 281.122 397.906 280.38 397.92C280.36 397.92 280.341 397.92 280.32 397.92ZM280.476 394.981C280.475 394.981 280.475 394.981 280.476 394.981ZM233.481 349.927L280.315 394.828L341.215 331.306L294.381 286.405L233.481 349.927Z" fill="#264653"/>
<path d="M328.493 331.83C328.244 331.83 327.995 331.737 327.801 331.552L310.048 314.531C309.65 314.149 309.636 313.516 310.019 313.117C310.402 312.72 311.034 312.706 311.433 313.088L329.186 330.109C329.584 330.491 329.598 331.124 329.215 331.523C329.019 331.727 328.756 331.83 328.493 331.83Z" fill="#12423C"/>
<path d="M319.569 343.547C319.32 343.547 319.071 343.454 318.877 343.269L283.37 309.227C282.972 308.845 282.958 308.212 283.341 307.813C283.724 307.416 284.357 307.402 284.755 307.784L320.262 341.826C320.66 342.208 320.674 342.841 320.291 343.24C320.095 343.443 319.832 343.547 319.569 343.547Z" fill="#264653"/>
<path d="M307.995 355.619C307.746 355.619 307.497 355.526 307.303 355.341L271.796 321.299C271.398 320.917 271.384 320.284 271.767 319.885C272.149 319.488 272.782 319.474 273.181 319.856L308.688 353.898C309.086 354.28 309.1 354.913 308.717 355.312C308.521 355.516 308.258 355.619 307.995 355.619Z" fill="#264653"/>
<path d="M297.103 366.98C296.854 366.98 296.605 366.887 296.411 366.702L260.903 332.66C260.505 332.278 260.491 331.645 260.874 331.246C261.256 330.849 261.889 330.835 262.288 331.217L297.796 365.259C298.194 365.641 298.208 366.274 297.825 366.673C297.628 366.877 297.365 366.98 297.103 366.98Z" fill="#264653"/>
<path d="M285.529 379.054C285.28 379.054 285.031 378.961 284.837 378.776L249.329 344.734C248.931 344.352 248.917 343.719 249.3 343.32C249.682 342.923 250.315 342.91 250.714 343.291L286.222 377.333C286.62 377.715 286.634 378.348 286.251 378.747C286.055 378.95 285.792 379.054 285.529 379.054Z" fill="#264653"/>
<path d="M252.285 338.427L191.81 363.132C191.157 363.399 190.411 363.086 190.145 362.433L156.697 280.556C156.43 279.903 156.743 279.157 157.396 278.891L217.871 254.186C218.524 253.919 219.27 254.232 219.536 254.885L252.984 336.762C253.251 337.415 252.938 338.16 252.285 338.427Z" fill="white"/>
<path d="M191.327 364.729C190.963 364.729 190.598 364.656 190.252 364.51C189.567 364.223 189.036 363.687 188.756 363L155.308 281.123C155.027 280.438 155.031 279.682 155.318 278.997C155.605 278.313 156.142 277.781 156.83 277.501L217.304 252.796C218.726 252.219 220.346 252.9 220.925 254.317L254.374 336.194C254.952 337.611 254.27 339.235 252.853 339.815C252.853 339.816 252.852 339.816 252.852 339.816L192.377 364.521C192.038 364.66 191.683 364.729 191.327 364.729ZM158.169 280.195L191.449 361.66L251.512 337.123L218.231 255.658L158.169 280.195Z" fill="#264653"/>
<path d="M209.303 285.254C208.91 285.254 208.535 285.02 208.377 284.632C208.168 284.121 208.413 283.537 208.925 283.328L219.324 279.079C219.83 278.869 220.418 279.115 220.628 279.627C220.837 280.138 220.592 280.722 220.08 280.931L209.681 285.18C209.558 285.23 209.429 285.254 209.303 285.254Z" fill="#264653"/>
<path d="M180.491 315.09C180.097 315.09 179.723 314.856 179.565 314.468C179.356 313.957 179.601 313.373 180.113 313.164L225.648 294.561C226.155 294.35 226.743 294.596 226.952 295.109C227.161 295.62 226.916 296.204 226.404 296.413L180.869 315.016C180.746 315.066 180.617 315.09 180.491 315.09Z" fill="#264653"/>
<path d="M212.229 314.415C211.835 314.415 211.461 314.181 211.303 313.793C211.094 313.282 211.339 312.698 211.851 312.489L229.951 305.096C230.461 304.885 231.046 305.132 231.255 305.644C231.464 306.155 231.219 306.739 230.707 306.948L212.607 314.342C212.483 314.392 212.355 314.415 212.229 314.415Z" fill="#12423C"/>
<path d="M184.794 325.624C184.401 325.624 184.027 325.39 183.868 325.002C183.659 324.491 183.904 323.907 184.416 323.698L195.495 319.172C196.002 318.962 196.59 319.208 196.799 319.72C197.008 320.231 196.763 320.815 196.251 321.024L185.172 325.55C185.049 325.601 184.92 325.624 184.794 325.624Z" fill="#12423C"/>
<path d="M188.368 337.906C187.974 337.906 187.6 337.672 187.442 337.284C187.233 336.773 187.478 336.189 187.99 335.98L216.037 324.522C216.544 324.312 217.132 324.557 217.341 325.07C217.55 325.581 217.305 326.165 216.793 326.374L188.746 337.832C188.623 337.883 188.494 337.906 188.368 337.906Z" fill="#264653"/>
<path d="M204.196 292.841L180.015 303.318C178.999 303.758 177.819 303.291 177.379 302.276L166.14 276.336C165.7 275.32 166.167 274.14 167.182 273.7L191.363 263.223C192.379 262.783 193.559 263.25 193.999 264.265L205.238 290.205C205.679 291.221 205.212 292.401 204.196 292.841Z" fill="#12423C"/>
<path d="M179.219 304.485C178.845 304.485 178.471 304.415 178.114 304.273C177.367 303.978 176.781 303.41 176.462 302.673L165.223 276.733C164.905 275.997 164.891 275.18 165.186 274.434C165.481 273.687 166.049 273.101 166.786 272.782L190.967 262.305C192.487 261.648 194.26 262.346 194.918 263.868L206.157 289.808C206.475 290.544 206.489 291.361 206.194 292.107C205.899 292.853 205.331 293.44 204.594 293.758C204.594 293.759 204.594 293.759 204.594 293.759L180.413 304.236C180.029 304.402 179.624 304.485 179.219 304.485ZM192.158 264.059C192.025 264.059 191.889 264.085 191.76 264.141L167.579 274.619C167.333 274.725 167.143 274.921 167.045 275.171C166.946 275.42 166.95 275.693 167.057 275.94L178.297 301.88C178.403 302.126 178.599 302.315 178.849 302.414C179.097 302.514 179.37 302.507 179.618 302.402L203.799 291.924C204.045 291.818 204.234 291.621 204.333 291.372C204.432 291.123 204.428 290.85 204.321 290.604L193.082 264.664C192.917 264.285 192.547 264.059 192.158 264.059Z" fill="#264653"/>
<path d="M178.405 279.101C178.111 279.101 177.816 279.045 177.535 278.934C176.947 278.701 176.485 278.254 176.234 277.674L174.916 274.633C174.807 274.379 174.923 274.085 175.176 273.975C175.431 273.865 175.724 273.982 175.834 274.235L177.152 277.277C177.297 277.612 177.563 277.87 177.902 278.004C178.244 278.14 178.613 278.132 178.946 277.987L179.169 277.891C179.702 277.66 179.948 277.037 179.717 276.504L176.381 268.805C176.143 268.254 175.5 268.002 174.948 268.239L174.569 268.404C173.983 268.657 173.713 269.34 173.966 269.926L174.048 270.114C174.158 270.368 174.043 270.662 173.79 270.772C173.539 270.883 173.242 270.768 173.132 270.514L173.049 270.324C172.575 269.23 173.079 267.958 174.171 267.485L174.55 267.32C175.604 266.865 176.84 267.35 177.298 268.406L180.634 276.106C181.083 277.145 180.605 278.357 179.566 278.808L179.343 278.904C179.043 279.035 178.724 279.101 178.405 279.101Z" fill="#264653"/>
<path d="M192.591 267.738C193.413 268.575 193.4 269.92 192.563 270.742C191.726 271.564 190.381 271.551 189.559 270.714C188.737 269.877 188.75 268.532 189.587 267.71C190.424 266.888 191.769 266.9 192.591 267.738Z" fill="white"/>
<path d="M309.442 272.776L249.31 298.304C248.661 298.58 247.911 298.277 247.635 297.627L213.073 216.214C212.797 215.565 213.1 214.815 213.75 214.539L273.882 189.011C274.531 188.735 275.281 189.038 275.557 189.688L310.119 271.101C310.395 271.75 310.092 272.5 309.442 272.776Z" fill="white"/>
<path d="M248.811 299.906C248.459 299.906 248.107 299.839 247.771 299.703C247.083 299.425 246.544 298.895 246.254 298.213L211.691 216.8C211.093 215.391 211.752 213.758 213.162 213.159L273.295 187.631C273.977 187.341 274.732 187.335 275.421 187.612C276.109 187.89 276.647 188.42 276.937 189.103L311.5 270.515C311.79 271.198 311.796 271.953 311.519 272.64C311.241 273.329 310.712 273.867 310.029 274.157L249.897 299.685C249.547 299.832 249.179 299.906 248.811 299.906ZM214.54 215.833L248.929 296.836L308.651 271.481L274.262 190.479L214.54 215.833Z" fill="#264653"/>
<path d="M265.726 220.195C265.337 220.195 264.966 219.966 264.804 219.585C264.588 219.077 264.826 218.49 265.335 218.274L275.675 213.884C276.179 213.67 276.77 213.904 276.987 214.414C277.203 214.922 276.965 215.509 276.457 215.725L266.117 220.115C265.989 220.169 265.856 220.195 265.726 220.195Z" fill="#264653"/>
<path d="M237.323 250.421C236.934 250.421 236.564 250.192 236.402 249.811C236.186 249.303 236.423 248.716 236.932 248.5L282.21 229.278C282.713 229.063 283.305 229.299 283.522 229.808C283.738 230.316 283.5 230.903 282.992 231.119L237.714 250.341C237.587 250.395 237.454 250.421 237.323 250.421Z" fill="#264653"/>
<path d="M269.05 249.313C268.661 249.313 268.291 249.084 268.129 248.703C267.913 248.195 268.15 247.608 268.659 247.392L286.656 239.751C287.16 239.536 287.751 239.772 287.967 240.281C288.183 240.789 287.945 241.376 287.437 241.592L269.44 249.233C269.314 249.287 269.181 249.313 269.05 249.313Z" fill="#12423C"/>
<path d="M241.768 260.894C241.379 260.894 241.009 260.665 240.847 260.285C240.631 259.777 240.868 259.189 241.377 258.973L252.394 254.296C252.898 254.083 253.489 254.317 253.706 254.826C253.922 255.334 253.685 255.922 253.176 256.138L242.159 260.815C242.031 260.868 241.898 260.894 241.768 260.894Z" fill="#12423C"/>
<path d="M245.511 273.127C245.122 273.127 244.752 272.899 244.59 272.518C244.374 272.01 244.611 271.422 245.12 271.206L273.009 259.366C273.514 259.152 274.104 259.388 274.32 259.896C274.536 260.404 274.299 260.992 273.79 261.208L245.901 273.048C245.774 273.102 245.642 273.127 245.511 273.127Z" fill="#264653"/>
<path d="M278.702 359.604L214.115 349.805C213.418 349.699 212.938 349.048 213.044 348.351L226.311 260.906C226.417 260.209 227.068 259.729 227.765 259.835L292.352 269.634C293.05 269.74 293.529 270.391 293.423 271.088L280.156 358.533C280.051 359.23 279.4 359.71 278.702 359.604Z" fill="#2A9D8F"/>
<path d="M278.9 361.119C278.76 361.119 278.619 361.109 278.478 361.088L213.891 351.288C213.158 351.177 212.51 350.787 212.071 350.188C211.631 349.59 211.45 348.858 211.562 348.123L224.828 260.68C224.939 259.947 225.329 259.3 225.927 258.861C226.524 258.422 227.258 258.24 227.99 258.35L292.578 268.15C293.311 268.261 293.958 268.651 294.397 269.249C294.837 269.847 295.018 270.579 294.908 271.313L281.64 358.758C281.529 359.491 281.139 360.138 280.541 360.577C280.06 360.933 279.488 361.119 278.9 361.119ZM214.561 348.355L278.708 358.087L291.908 271.082L227.76 261.35L214.561 348.355Z" fill="#264653"/>
<path d="M248.5 275.422C248.45 275.422 248.399 275.418 248.349 275.41L235.951 273.529C235.405 273.447 235.03 272.937 235.113 272.39C235.196 271.844 235.707 271.465 236.252 271.552L248.65 273.433C249.196 273.515 249.571 274.025 249.488 274.572C249.412 275.067 248.986 275.422 248.5 275.422Z" fill="white"/>
<path d="M280.687 293.739C280.637 293.739 280.586 293.735 280.536 293.727L266.299 291.567C265.753 291.485 265.378 290.975 265.461 290.428C265.544 289.882 266.051 289.505 266.6 289.59L280.837 291.75C281.383 291.832 281.758 292.342 281.675 292.889C281.599 293.385 281.173 293.739 280.687 293.739Z" fill="#264653"/>
<path d="M256.371 290.051C256.321 290.051 256.27 290.047 256.22 290.039L231.904 286.35C231.358 286.268 230.983 285.758 231.066 285.211C231.149 284.665 231.655 284.287 232.205 284.373L256.521 288.063C257.067 288.145 257.442 288.655 257.359 289.202C257.283 289.696 256.857 290.051 256.371 290.051Z" fill="white"/>
<path d="M257.25 307.099C257.2 307.099 257.149 307.095 257.099 307.087L229.394 302.884C228.848 302.802 228.473 302.292 228.556 301.745C228.639 301.199 229.147 300.822 229.695 300.907L257.4 305.11C257.946 305.192 258.321 305.702 258.238 306.249C258.162 306.744 257.736 307.099 257.25 307.099Z" fill="#264653"/>
<path d="M275.817 325.837C275.767 325.837 275.716 325.833 275.666 325.825L227.033 318.447C226.487 318.365 226.112 317.855 226.195 317.308C226.278 316.762 226.786 316.386 227.334 316.47L275.967 323.848C276.513 323.93 276.888 324.44 276.805 324.987C276.729 325.482 276.304 325.837 275.817 325.837Z" fill="white"/>
<path d="M252.024 339.143C251.974 339.143 251.924 339.139 251.873 339.131L224.525 334.983C223.979 334.901 223.604 334.391 223.687 333.844C223.769 333.298 224.269 332.923 224.826 333.006L252.174 337.154C252.72 337.236 253.095 337.746 253.012 338.293C252.938 338.788 252.511 339.143 252.024 339.143Z" fill="white"/>
<path d="M289.412 424.066L174.413 424.307C168.37 424.32 163.416 419.386 163.403 413.343L163.24 335.7C163.227 329.657 168.161 324.702 174.204 324.69L289.203 324.448C295.246 324.435 300.2 329.369 300.213 335.412L300.376 413.055C300.389 419.098 295.455 424.053 289.412 424.066Z" fill="white"/>
<path d="M174.391 425.308C171.211 425.308 168.212 424.065 165.943 421.805C163.668 419.539 162.412 416.534 162.405 413.345L162.242 335.702C162.235 332.513 163.479 329.503 165.745 327.228C168.01 324.953 171.015 323.697 174.204 323.69L289.203 323.449C289.212 323.449 289.22 323.449 289.228 323.449C295.827 323.449 301.202 328.809 301.215 335.411L301.378 413.054C301.392 419.663 296.025 425.052 289.415 425.066L174.416 425.308C174.408 425.308 174.398 425.308 174.391 425.308ZM289.227 325.449C289.219 325.449 289.213 325.449 289.206 325.449L174.207 325.69C171.552 325.696 169.049 326.743 167.161 328.639C165.272 330.536 164.235 333.042 164.241 335.698L164.404 413.341C164.41 415.996 165.457 418.499 167.353 420.388C169.245 422.272 171.743 423.308 174.39 423.308C174.397 423.308 174.405 423.308 174.411 423.308L289.41 423.066C294.917 423.054 299.388 418.565 299.377 413.058L299.214 335.415C299.203 329.916 294.725 325.449 289.227 325.449Z" fill="#264653"/>
<path d="M290.352 305.769L261.346 305.83C255.968 305.841 251.576 310.251 251.588 315.629L251.617 329.51L178.149 329.664C169.931 329.681 163.22 336.419 163.238 344.638L163.384 414.37C163.401 422.588 170.14 429.298 178.358 429.281L285.446 429.056C293.664 429.039 300.374 422.3 300.357 414.082L300.214 345.779L300.211 344.351L300.151 315.528C300.14 310.149 295.73 305.758 290.352 305.769Z" fill="#E76F51"/>
<path d="M178.329 430.781C169.278 430.781 161.905 423.427 161.886 414.373L161.74 344.641C161.72 335.576 169.081 328.184 178.148 328.164L250.116 328.013L250.09 315.632C250.083 312.631 251.254 309.799 253.385 307.659C255.516 305.518 258.343 304.337 261.345 304.33L290.351 304.269C290.359 304.269 290.368 304.269 290.375 304.269C296.583 304.269 301.64 309.312 301.653 315.524L301.86 414.079C301.878 423.145 294.517 430.537 285.452 430.556L178.363 430.782C178.351 430.781 178.34 430.781 178.329 430.781ZM290.355 307.27L261.349 307.331C259.149 307.336 257.075 308.204 255.509 309.776C253.943 311.348 253.083 313.426 253.088 315.627L253.117 329.508C253.118 329.905 252.961 330.287 252.679 330.57C252.399 330.851 252.018 331.01 251.62 331.011L178.152 331.165C170.74 331.181 164.722 337.224 164.738 344.636L164.884 414.368C164.9 421.77 170.928 427.782 178.327 427.782C178.336 427.782 178.345 427.782 178.354 427.782L285.443 427.556C292.854 427.541 298.872 421.498 298.857 414.085L298.65 315.53C298.64 310.971 294.928 307.269 290.372 307.269C290.368 307.27 290.362 307.27 290.355 307.27Z" fill="#264653"/>
<path opacity="0.12" d="M289.344 316.891L263.391 316.946C258.579 316.956 254.65 320.902 254.66 325.716L254.686 338.138L188.951 338.276C181.598 338.292 175.594 344.322 175.609 351.677L175.74 414.082C175.755 421.437 181.784 427.442 189.138 427.426L284.955 427.225C292.308 427.21 298.312 421.179 298.297 413.824L298.169 352.697L298.166 351.419L298.112 325.624C298.101 320.811 294.156 316.881 289.344 316.891Z" fill="white"/>
<path d="M290.854 414.677C290.854 417.374 288.668 419.56 285.971 419.56C283.274 419.56 281.088 417.374 281.088 414.677C281.088 411.98 283.274 409.794 285.971 409.794C288.668 409.794 290.854 411.98 290.854 414.677Z" fill="white"/>
<path d="M294.268 332.135C293.715 332.135 293.268 331.688 293.268 331.135V317.843C293.268 315.613 291.289 313.798 288.857 313.798H279.172C278.619 313.798 278.172 313.351 278.172 312.798C278.172 312.245 278.619 311.798 279.172 311.798H288.857C292.392 311.798 295.268 314.51 295.268 317.843V331.135C295.268 331.688 294.82 332.135 294.268 332.135Z" fill="white"/>
<path d="M222.738 371.568C222.092 371.568 221.445 371.318 220.955 370.821C219.987 369.836 220.001 368.254 220.985 367.285L232.735 355.734L244.301 367.3C245.278 368.277 245.278 369.859 244.301 370.835C243.324 371.812 241.742 371.812 240.766 370.835L232.705 362.774L224.49 370.85C224.004 371.33 223.371 371.568 222.738 371.568Z" fill="white"/>
<path d="M232.637 387.057C231.256 387.057 230.137 385.938 230.137 384.557V359.256C230.137 357.875 231.256 356.756 232.637 356.756C234.018 356.756 235.137 357.875 235.137 359.256V384.557C235.137 385.938 234.018 387.057 232.637 387.057Z" fill="white"/>
<path d="M251.042 399.071H213.938C210.974 399.071 208.562 396.659 208.562 393.695V380.215C208.562 378.834 209.681 377.715 211.062 377.715C212.444 377.715 213.562 378.834 213.562 380.215V393.695C213.562 393.902 213.731 394.071 213.938 394.071H251.042C251.41 394.071 251.708 393.772 251.708 393.404V380.215C251.708 378.834 252.827 377.715 254.208 377.715C255.589 377.715 256.709 378.834 256.709 380.215V393.404C256.709 396.529 254.167 399.071 251.042 399.071Z" fill="white"/>
<path d="M562.427 411.623L455.339 411.848C447.121 411.865 440.382 405.155 440.365 396.937L440.219 327.205C440.202 318.987 446.912 312.248 455.13 312.231L562.218 312.006C570.436 311.989 577.175 318.699 577.192 326.917L577.338 396.649C577.355 404.867 570.645 411.606 562.427 411.623Z" fill="#E76F51"/>
<path d="M455.305 413.348C450.943 413.348 446.828 411.643 443.717 408.544C440.597 405.437 438.873 401.315 438.864 396.94L438.717 327.208C438.698 318.142 446.059 310.75 455.125 310.73L562.214 310.505C562.225 310.505 562.236 310.505 562.247 310.505C571.298 310.505 578.671 317.859 578.69 326.913L578.836 396.645C578.855 405.71 571.495 413.102 562.428 413.121L455.339 413.346C455.328 413.348 455.316 413.348 455.305 413.348ZM562.247 313.506C562.238 313.506 562.229 313.506 562.22 313.506L455.131 313.731C447.72 313.747 441.702 319.791 441.717 327.203L441.864 396.935C441.872 400.509 443.282 403.877 445.834 406.419C448.38 408.954 451.742 410.349 455.306 410.349C455.316 410.349 455.326 410.349 455.335 410.349L562.424 410.124C565.997 410.116 569.365 408.706 571.908 406.154C574.45 403.601 575.846 400.227 575.838 396.653L575.692 326.921C575.675 319.518 569.646 313.506 562.247 313.506Z" fill="#264653"/>
<path d="M562.427 411.623L455.339 411.848C447.121 411.865 440.382 405.155 440.365 396.937L440.219 327.205C440.202 318.987 446.912 312.248 455.13 312.231L562.218 312.006C570.436 311.989 577.175 318.699 577.192 326.917L577.338 396.649C577.355 404.867 570.645 411.606 562.427 411.623Z" fill="#12423C"/>
<path d="M455.305 413.348C450.943 413.348 446.828 411.643 443.717 408.544C440.597 405.437 438.873 401.315 438.864 396.94L438.717 327.208C438.698 318.142 446.059 310.75 455.125 310.73L562.214 310.505C562.225 310.505 562.236 310.505 562.247 310.505C571.298 310.505 578.671 317.859 578.69 326.913L578.836 396.645C578.855 405.71 571.495 413.102 562.428 413.121L455.339 413.346C455.328 413.348 455.316 413.348 455.305 413.348ZM562.247 313.506C562.238 313.506 562.229 313.506 562.22 313.506L455.131 313.731C447.72 313.747 441.702 319.791 441.717 327.203L441.864 396.935C441.872 400.509 443.282 403.877 445.834 406.419C448.38 408.954 451.742 410.349 455.306 410.349C455.316 410.349 455.326 410.349 455.335 410.349L562.424 410.124C565.997 410.116 569.365 408.706 571.908 406.154C574.45 403.601 575.846 400.227 575.838 396.653L575.692 326.921C575.675 319.518 569.646 313.506 562.247 313.506Z" fill="#264653"/>
<path opacity="0.24" d="M562.427 411.623L455.339 411.848C447.121 411.865 440.382 405.155 440.365 396.937L440.219 327.205C440.202 318.987 446.912 312.248 455.13 312.231L562.218 312.006C570.436 311.989 577.175 318.699 577.192 326.917L577.338 396.649C577.355 404.867 570.645 411.606 562.427 411.623Z" fill="#264653"/>
<path d="M566.381 417.841L451.382 418.082C445.339 418.095 440.384 413.161 440.372 407.118L440.209 329.475C440.196 323.432 445.13 318.478 451.173 318.465L566.172 318.223C572.215 318.21 577.169 323.144 577.182 329.187L577.345 406.83C577.358 412.874 572.424 417.828 566.381 417.841Z" fill="white"/>
<path d="M451.358 419.082C444.76 419.082 439.385 413.722 439.372 407.12L439.209 329.477C439.195 322.867 444.561 317.478 451.171 317.464L566.17 317.223C566.179 317.223 566.187 317.223 566.195 317.223C572.793 317.223 578.168 322.583 578.181 329.185L578.344 406.828C578.358 413.438 572.991 418.827 566.382 418.841L451.383 419.082C451.375 419.082 451.367 419.082 451.358 419.082ZM566.379 416.841C571.886 416.829 576.356 412.34 576.345 406.832L576.182 329.19C576.17 323.691 571.692 319.224 566.196 319.224C566.188 319.224 566.182 319.224 566.175 319.224L451.176 319.465C445.669 319.477 441.198 323.966 441.21 329.474L441.373 407.117C441.385 412.616 445.863 417.083 451.359 417.083C451.367 417.083 451.373 417.083 451.381 417.083L566.379 416.841Z" fill="#264653"/>
<path d="M566.381 424.066L451.382 424.307C445.339 424.32 440.384 419.386 440.372 413.343L440.209 335.7C440.196 329.657 445.13 324.702 451.173 324.69L566.172 324.448C572.215 324.435 577.169 329.369 577.182 335.412L577.345 413.055C577.358 419.098 572.424 424.053 566.381 424.066Z" fill="white"/>
<path d="M451.358 425.308C444.76 425.308 439.385 419.947 439.372 413.345L439.209 335.702C439.202 332.513 440.446 329.503 442.712 327.228C444.977 324.953 447.982 323.697 451.171 323.69L566.17 323.449C566.179 323.449 566.187 323.449 566.195 323.449C572.793 323.449 578.168 328.809 578.181 335.411L578.344 413.054C578.358 419.663 572.991 425.052 566.382 425.066L451.383 425.308C451.375 425.308 451.367 425.308 451.358 425.308ZM566.195 325.449C566.187 325.449 566.181 325.449 566.174 325.449L451.175 325.69C448.52 325.696 446.017 326.743 444.129 328.639C442.24 330.536 441.203 333.042 441.209 335.698L441.372 413.341C441.384 418.841 445.862 423.308 451.358 423.308C451.366 423.308 451.372 423.308 451.38 423.308L566.379 423.066C571.886 423.054 576.356 418.565 576.345 413.058L576.182 335.415C576.17 329.916 571.691 325.449 566.195 325.449Z" fill="#264653"/>
<path d="M567.318 305.769L538.312 305.83C532.934 305.841 528.543 310.251 528.554 315.629L528.583 329.51L455.116 329.664C446.898 329.681 440.188 336.419 440.205 344.638L440.351 414.37C440.368 422.588 447.107 429.298 455.325 429.281L562.413 429.056C570.631 429.039 577.341 422.3 577.324 414.082L577.181 345.779L577.178 344.351L577.118 315.528C577.106 310.149 572.697 305.758 567.318 305.769Z" fill="#12423C"/>
<path d="M455.296 430.781C446.243 430.781 438.871 423.427 438.853 414.373L438.707 344.641C438.687 335.576 446.048 328.184 455.115 328.164L527.082 328.013L527.057 315.632C527.05 312.631 528.22 309.799 530.352 307.659C532.483 305.518 535.31 304.337 538.312 304.33L567.318 304.269C567.326 304.269 567.335 304.269 567.342 304.269C570.335 304.269 573.157 305.439 575.291 307.564C577.431 309.695 578.613 312.522 578.619 315.524L578.826 414.079C578.836 418.454 577.13 422.583 574.022 425.703C570.914 428.823 566.793 430.547 562.418 430.556L455.33 430.782C455.318 430.781 455.307 430.781 455.296 430.781ZM567.322 307.27L538.316 307.331C536.116 307.336 534.042 308.204 532.475 309.776C530.909 311.348 530.05 313.426 530.055 315.627L530.083 329.508C530.085 330.336 529.414 331.009 528.586 331.011L455.119 331.165C447.707 331.181 441.689 337.224 441.705 344.636L441.851 414.368C441.866 421.77 447.894 427.782 455.294 427.782C455.303 427.782 455.312 427.782 455.321 427.782L562.409 427.556C565.983 427.549 569.351 426.139 571.893 423.586C574.435 421.034 575.831 417.659 575.823 414.085L575.616 315.53C575.612 313.33 574.743 311.256 573.171 309.69C571.604 308.129 569.532 307.269 567.339 307.269C567.335 307.27 567.329 307.27 567.322 307.27Z" fill="#264653"/>
<path opacity="0.12" d="M566.03 316.891L540.077 316.946C535.265 316.956 531.336 320.902 531.346 325.716L531.372 338.138L465.637 338.276C458.284 338.292 452.28 344.322 452.295 351.677L452.426 414.082C452.441 421.437 458.471 427.442 465.824 427.426L561.641 427.225C568.994 427.21 574.998 421.179 574.983 413.824L574.855 352.697L574.852 351.419L574.798 325.624C574.788 320.811 570.842 316.881 566.03 316.891Z" fill="white"/>
<path d="M567.539 414.677C567.539 417.374 565.353 419.56 562.656 419.56C559.959 419.56 557.773 417.374 557.773 414.677C557.773 411.98 559.959 409.794 562.656 409.794C565.353 409.794 567.539 411.98 567.539 414.677Z" fill="white"/>
<path d="M570.951 332.135C570.398 332.135 569.951 331.688 569.951 331.135V317.843C569.951 315.613 567.972 313.798 565.541 313.798H555.855C555.302 313.798 554.855 313.351 554.855 312.798C554.855 312.245 555.302 311.798 555.855 311.798H565.541C569.075 311.798 571.951 314.51 571.951 317.843V331.135C571.951 331.688 571.504 332.135 570.951 332.135Z" fill="white"/>
<path d="M512.621 388.077L501.055 376.511C500.078 375.534 500.078 373.952 501.055 372.976C502.032 371.999 503.614 371.999 504.59 372.976L512.651 381.037L520.866 372.961C521.851 371.994 523.432 372.009 524.402 372.991C525.37 373.976 525.356 375.558 524.372 376.527L512.621 388.077Z" fill="white"/>
<path d="M512.721 387.057C511.34 387.057 510.221 385.938 510.221 384.557V359.256C510.221 357.875 511.34 356.756 512.721 356.756C514.102 356.756 515.221 357.875 515.221 359.256V384.557C515.221 385.938 514.102 387.057 512.721 387.057Z" fill="white"/>
<path d="M531.125 399.071H494.022C491.058 399.071 488.646 396.659 488.646 393.695V380.215C488.646 378.834 489.765 377.715 491.146 377.715C492.527 377.715 493.646 378.834 493.646 380.215V393.695C493.646 393.902 493.815 394.071 494.022 394.071H531.125C531.493 394.071 531.792 393.772 531.792 393.404V380.215C531.792 378.834 532.911 377.715 534.292 377.715C535.673 377.715 536.792 378.834 536.792 380.215V393.404C536.792 396.529 534.25 399.071 531.125 399.071Z" fill="white"/>
<path d="M500.602 296.211L451.198 260.603C450.626 260.191 450.496 259.392 450.909 258.82L499.153 191.885C499.566 191.313 500.364 191.183 500.936 191.596L550.34 227.204C550.912 227.616 551.042 228.415 550.629 228.987L502.385 295.922C501.972 296.494 501.174 296.624 500.602 296.211Z" fill="white"/>
<path d="M501.344 297.952C500.766 297.952 500.204 297.772 499.726 297.428L450.323 261.821C449.082 260.924 448.8 259.186 449.694 257.944L497.938 191.009C498.372 190.407 499.013 190.01 499.746 189.891C500.474 189.774 501.211 189.945 501.814 190.379L551.217 225.987C552.458 226.882 552.741 228.621 551.848 229.863L503.603 296.799C503.169 297.401 502.527 297.798 501.794 297.916C501.644 297.94 501.493 297.952 501.344 297.952ZM501.479 294.994L501.478 294.993L501.479 294.994ZM452.257 259.517L501.299 294.865L549.282 228.291L500.241 192.944L452.257 259.517Z" fill="#264653"/>
<path d="M500.602 296.211L451.198 260.603C450.626 260.191 450.496 259.392 450.909 258.82L499.153 191.885C499.566 191.313 500.364 191.183 500.936 191.596L550.34 227.204C550.912 227.616 551.042 228.415 550.629 228.987L502.385 295.922C501.972 296.494 501.174 296.624 500.602 296.211Z" fill="#2A9D8F"/>
<path d="M501.344 297.952C500.766 297.952 500.204 297.772 499.726 297.428L450.323 261.821C449.082 260.924 448.8 259.186 449.694 257.944L497.938 191.009C498.372 190.407 499.013 190.01 499.746 189.891C500.474 189.774 501.211 189.945 501.814 190.379L551.217 225.987C552.458 226.882 552.741 228.621 551.848 229.863L503.603 296.799C503.169 297.401 502.527 297.798 501.794 297.916C501.644 297.94 501.493 297.952 501.344 297.952ZM501.479 294.994L501.478 294.993L501.479 294.994ZM452.257 259.517L501.299 294.865L549.282 228.291L500.241 192.944L452.257 259.517Z" fill="#264653"/>
<path d="M530.846 242.493C530.644 242.493 530.439 242.432 530.262 242.304L521.743 236.164C521.295 235.841 521.194 235.216 521.516 234.769C521.838 234.32 522.463 234.217 522.913 234.542L531.431 240.682C531.879 241.005 531.98 241.63 531.658 242.078C531.463 242.349 531.156 242.493 530.846 242.493Z" fill="#264653"/>
<path d="M521.706 255.176C521.504 255.176 521.299 255.115 521.122 254.988L483.82 228.102C483.372 227.779 483.271 227.154 483.593 226.707C483.915 226.259 484.54 226.156 484.989 226.48L522.291 253.365C522.739 253.688 522.84 254.313 522.518 254.761C522.323 255.031 522.017 255.176 521.706 255.176Z" fill="#264653"/>
<path d="M515.485 263.805C515.283 263.805 515.078 263.744 514.901 263.617L500.075 252.93C499.627 252.607 499.526 251.982 499.848 251.534C500.17 251.087 500.795 250.985 501.244 251.307L516.07 261.994C516.518 262.317 516.619 262.942 516.297 263.39C516.103 263.66 515.796 263.805 515.485 263.805Z" fill="#12423C"/>
<path d="M487.26 243.46C487.058 243.46 486.853 243.399 486.676 243.271L477.601 236.73C477.153 236.407 477.052 235.782 477.374 235.335C477.696 234.886 478.321 234.784 478.771 235.108L487.846 241.649C488.294 241.972 488.395 242.597 488.073 243.045C487.877 243.316 487.57 243.46 487.26 243.46Z" fill="#12423C"/>
<path d="M493.192 262.396C492.99 262.396 492.785 262.335 492.608 262.207L469.632 245.647C469.184 245.324 469.083 244.699 469.405 244.251C469.727 243.802 470.352 243.7 470.802 244.024L493.778 260.583C494.226 260.906 494.327 261.531 494.005 261.979C493.809 262.251 493.503 262.396 493.192 262.396Z" fill="#264653"/>
<path d="M505.486 288.151L444.515 264.697C443.857 264.444 443.528 263.705 443.781 263.046L475.535 180.497C475.788 179.839 476.527 179.51 477.186 179.764L538.157 203.218C538.815 203.471 539.144 204.21 538.89 204.869L507.136 287.418C506.883 288.076 506.144 288.404 505.486 288.151Z" fill="white"/>
<path d="M505.94 289.735C505.609 289.735 505.273 289.675 504.947 289.55L443.976 266.096C442.545 265.544 441.831 263.934 442.381 262.505L474.134 179.958C474.685 178.529 476.294 177.814 477.723 178.362L538.695 201.817C540.124 202.367 540.839 203.977 540.291 205.405L508.537 287.954C508.111 289.058 507.056 289.735 505.94 289.735ZM445.261 263.376L505.817 286.671L537.412 204.537L476.856 181.243L445.261 263.376Z" fill="#264653"/>
<path d="M505.486 288.151L444.515 264.697C443.857 264.444 443.528 263.705 443.781 263.046L475.535 180.497C475.788 179.839 476.527 179.51 477.186 179.764L538.157 203.218C538.815 203.471 539.144 204.21 538.89 204.869L507.136 287.418C506.883 288.076 506.144 288.404 505.486 288.151Z" fill="white"/>
<path d="M505.94 289.735C505.609 289.735 505.273 289.675 504.947 289.55L443.976 266.096C442.545 265.544 441.831 263.934 442.381 262.505L474.134 179.958C474.685 178.529 476.294 177.814 477.723 178.362L538.695 201.817C540.124 202.367 540.839 203.977 540.291 205.405L508.537 287.954C508.111 289.058 507.056 289.735 505.94 289.735ZM445.261 263.376L505.817 286.671L537.412 204.537L476.856 181.243L445.261 263.376Z" fill="#264653"/>
<path d="M487.965 210.383C487.846 210.383 487.724 210.361 487.606 210.316L477.121 206.283C476.606 206.085 476.349 205.506 476.547 204.991C476.745 204.475 477.324 204.218 477.84 204.417L488.325 208.45C488.84 208.648 489.097 209.227 488.899 209.742C488.745 210.139 488.366 210.383 487.965 210.383Z" fill="#264653"/>
<path d="M515.793 239.885C515.674 239.885 515.552 239.863 515.434 239.818L469.524 222.158C469.009 221.96 468.752 221.381 468.95 220.866C469.149 220.35 469.726 220.092 470.243 220.292L516.153 237.952C516.668 238.15 516.925 238.729 516.727 239.244C516.573 239.641 516.194 239.885 515.793 239.885Z" fill="#264653"/>
<path d="M511.707 250.505C511.588 250.505 511.466 250.483 511.348 250.438L493.1 243.418C492.585 243.22 492.328 242.641 492.526 242.126C492.724 241.61 493.302 241.353 493.819 241.552L512.067 248.572C512.582 248.77 512.839 249.349 512.641 249.864C512.487 250.261 512.108 250.505 511.707 250.505Z" fill="#12423C"/>
<path d="M476.967 237.142C476.848 237.142 476.726 237.12 476.608 237.075L465.438 232.778C464.923 232.58 464.665 232.001 464.864 231.486C465.062 230.97 465.639 230.713 466.157 230.912L477.327 235.209C477.842 235.407 478.099 235.986 477.901 236.501C477.747 236.898 477.368 237.142 476.967 237.142Z" fill="#12423C"/>
<path d="M488.26 255.116C488.141 255.116 488.019 255.095 487.901 255.05L459.623 244.172C459.108 243.974 458.851 243.395 459.049 242.88C459.248 242.365 459.825 242.107 460.342 242.306L488.62 253.183C489.135 253.381 489.392 253.96 489.194 254.476C489.04 254.873 488.661 255.116 488.26 255.116Z" fill="#264653"/>
<path d="M392.862 251.955L320.652 227.3C319.826 227.018 319.385 226.12 319.667 225.294L353.344 126.662C353.626 125.836 354.524 125.395 355.35 125.677L427.56 150.332C428.386 150.614 428.827 151.512 428.545 152.338L394.868 250.97C394.586 251.796 393.688 252.237 392.862 251.955Z" fill="#12423C"/>
<path d="M393.371 253.539C393.042 253.539 392.707 253.486 392.379 253.374L320.169 228.719C319.391 228.454 318.762 227.901 318.399 227.162C318.037 226.423 317.983 225.587 318.249 224.808L351.926 126.176C352.193 125.397 352.745 124.769 353.485 124.406C354.223 124.044 355.058 123.989 355.838 124.256L428.046 148.911C428.825 149.177 429.453 149.73 429.817 150.469C430.179 151.208 430.233 152.044 429.966 152.823L396.29 251.454C395.852 252.732 394.652 253.539 393.371 253.539ZM354.848 127.093C354.814 127.093 354.775 127.116 354.765 127.146L321.088 225.778C321.075 225.814 321.102 225.867 321.138 225.88L393.348 250.535H393.349C393.383 250.546 393.438 250.521 393.45 250.485L427.127 151.853C427.14 151.817 427.112 151.763 427.076 151.751L354.868 127.096C354.86 127.094 354.854 127.093 354.848 127.093Z" fill="#264653"/>
<path d="M407.849 245.382L331.79 239.29C330.92 239.22 330.271 238.459 330.341 237.588L338.662 133.698C338.732 132.828 339.494 132.179 340.364 132.249L416.423 138.341C417.293 138.411 417.942 139.173 417.872 140.043L409.551 243.933C409.481 244.803 408.719 245.451 407.849 245.382Z" fill="white"/>
<path d="M407.98 246.887C407.896 246.887 407.812 246.884 407.728 246.877L331.669 240.785C330.849 240.719 330.104 240.338 329.57 239.712C329.036 239.086 328.778 238.288 328.844 237.468L337.164 133.579C337.301 131.885 338.79 130.619 340.481 130.754L416.54 136.846C418.232 136.982 419.499 138.469 419.364 140.162L411.043 244.053C410.977 244.873 410.597 245.619 409.97 246.153C409.41 246.63 408.711 246.887 407.98 246.887ZM340.237 133.744C340.195 133.744 340.16 133.776 340.156 133.819L331.836 237.708C331.833 237.747 331.872 237.792 331.91 237.795L407.969 243.887C408.016 243.878 408.053 243.851 408.056 243.814L416.377 139.923C416.38 139.879 416.348 139.84 416.303 139.836L340.243 133.744C340.241 133.744 340.239 133.744 340.237 133.744Z" fill="#264653"/>
<path d="M405.282 155.847C405.256 155.847 405.228 155.846 405.201 155.844L385.934 154.3C385.383 154.256 384.973 153.774 385.017 153.223C385.061 152.673 385.527 152.261 386.094 152.306L405.361 153.85C405.911 153.894 406.322 154.376 406.278 154.927C406.236 155.45 405.799 155.847 405.282 155.847Z" fill="#12423C"/>
<path d="M404.789 162.002C404.763 162.002 404.735 162.001 404.708 161.999L385.44 160.456C384.89 160.412 384.479 159.93 384.523 159.379C384.567 158.829 385.044 158.416 385.6 158.462L404.868 160.006C405.418 160.05 405.829 160.532 405.785 161.083C405.743 161.605 405.306 162.002 404.789 162.002Z" fill="#12423C"/>
<path d="M359.679 228.184C359.653 228.184 359.625 228.183 359.598 228.181L340.33 226.637C339.78 226.593 339.369 226.111 339.413 225.56C339.457 225.01 339.938 224.597 340.49 224.643L359.758 226.186C360.308 226.23 360.719 226.712 360.675 227.263C360.633 227.787 360.195 228.184 359.679 228.184Z" fill="#12423C"/>
<path d="M360.523 194.703C360.497 194.703 360.469 194.702 360.442 194.7L343.311 193.328C342.761 193.284 342.35 192.802 342.394 192.251C342.438 191.702 342.912 191.284 343.471 191.335L360.602 192.707C361.152 192.751 361.563 193.233 361.519 193.784C361.477 194.306 361.04 194.703 360.523 194.703Z" fill="#264653"/>
<path d="M371.025 218.525C370.999 218.525 370.971 218.524 370.944 218.522L341.483 216.163C340.933 216.119 340.522 215.637 340.566 215.087C340.611 214.537 341.084 214.119 341.643 214.17L371.104 216.529C371.654 216.573 372.065 217.055 372.021 217.605C371.979 218.128 371.542 218.525 371.025 218.525Z" fill="#264653"/>
<path d="M364.782 206.535C364.756 206.535 364.728 206.534 364.701 206.532L342.397 204.745C341.847 204.701 341.436 204.219 341.48 203.668C341.524 203.118 341.989 202.706 342.557 202.751L364.861 204.538C365.412 204.582 365.822 205.064 365.778 205.615C365.736 206.138 365.299 206.535 364.782 206.535Z" fill="#264653"/>
<path d="M401.825 187.448C401.799 187.448 401.771 187.447 401.744 187.445L344.063 182.825C343.513 182.781 343.102 182.299 343.146 181.748C343.19 181.198 343.657 180.778 344.223 180.831L401.904 185.451C402.454 185.495 402.865 185.977 402.821 186.528C402.779 187.051 402.342 187.448 401.825 187.448Z" fill="#264653"/>
<path d="M399.457 209.223C399.431 209.223 399.403 209.222 399.376 209.22L371.815 207.013C371.265 206.969 370.854 206.487 370.898 205.936C370.942 205.387 371.41 204.97 371.975 205.019L399.536 207.227C400.086 207.271 400.497 207.753 400.453 208.304C400.411 208.826 399.974 209.223 399.457 209.223Z" fill="#264653"/>
<path d="M402.267 198.047C402.239 198.047 402.21 198.046 402.182 198.044L366.836 195.061C366.285 195.015 365.877 194.531 365.924 193.98C365.971 193.429 366.458 193.029 367.004 193.067L402.35 196.05C402.901 196.096 403.309 196.58 403.262 197.131C403.218 197.653 402.781 198.047 402.267 198.047Z" fill="#264653"/>
</svg>
